<svg width="36" height="36" viewBox="0 0 36 36" fill="none" xmlns="http://www.w3.org/2000/svg">
<path d="M34.1834 12.5167C36.2667 10.4334 35.3167 8.00004 34.1834 6.81671L29.1834 1.81671C27.0834 -0.266622 24.6667 0.683378 23.4834 1.81671L20.65 4.66671H16.3334C13.1667 4.66671 11.3334 6.33338 10.4 8.25004L3.00004 15.65V22.3167L1.81671 23.4834C-0.266622 25.5834 0.683378 28 1.81671 29.1834L6.81671 34.1834C7.71671 35.0834 8.68338 35.4167 9.60005 35.4167C10.7834 35.4167 11.8667 34.8334 12.5167 34.1834L17.0167 29.6667H23C25.8334 29.6667 27.2667 27.9 27.7834 26.1667C29.6667 25.6667 30.7 24.2334 31.1167 22.8334C33.7 22.1667 34.6667 19.7167 34.6667 18V13H33.6834L34.1834 12.5167ZM31.3334 18C31.3334 18.75 31.0167 19.6667 29.6667 19.6667H28V21.3334C28 22.0834 27.6834 23 26.3334 23H24.6667V24.6667C24.6667 25.4167 24.35 26.3334 23 26.3334H15.65L10.1834 31.8C9.66671 32.2834 9.36671 32 9.18338 31.8167L4.20004 26.85C3.71671 26.3334 4.00004 26.0334 4.18338 25.85L6.33338 23.6834V17.0167L9.66671 13.6834V16.3334C9.66671 18.35 11 21.3334 14.6667 21.3334C18.3334 21.3334 19.6667 18.35 19.6667 16.3334H31.3334V18ZM31.8167 10.15L28.9834 13H16.3334V16.3334C16.3334 17.0834 16.0167 18 14.6667 18C13.3167 18 13 17.0834 13 16.3334V11.3334C13 10.5667 13.2834 8.00004 16.3334 8.00004H22.0167L25.8167 4.20004C26.3334 3.71671 26.6334 4.00004 26.8167 4.18338L31.8 9.15004C32.2834 9.66671 32 9.96671 31.8167 10.15Z" fill="#00B2E8"/>
</svg>
