<svg width="34" height="34" viewBox="0 0 34 34" fill="none" xmlns="http://www.w3.org/2000/svg">
<path d="M25.3334 33.6666V30.3333H30.3334V25.3333H33.6667V31.1666C33.6667 31.8166 33.4 32.3999 32.9 32.8999C32.4 33.3999 31.8167 33.6666 31.1667 33.6666H25.3334ZM8.66671 33.6666H2.83337C2.18337 33.6666 1.60004 33.3999 1.10004 32.8999C0.600041 32.3999 0.333374 31.8166 0.333374 31.1666V25.3333H3.66671V30.3333H8.66671V33.6666ZM25.3334 0.333252H31.1667C31.8167 0.333252 32.4 0.599919 32.9 1.09992C33.4 1.59992 33.6667 2.18325 33.6667 2.83325V8.66658H30.3334V3.66659H25.3334V0.333252ZM8.66671 0.333252V3.66659H3.66671V8.66658H0.333374V2.83325C0.333374 2.18325 0.600041 1.59992 1.10004 1.09992C1.60004 0.599919 2.18337 0.333252 2.83337 0.333252H8.66671ZM18.6667 25.7499L25.3334 21.9166V14.2666L18.6667 18.0999V25.7499ZM17 15.1999L23.6667 11.3833L17 7.46659L10.3334 11.3833L17 15.1999ZM8.66671 21.9166L15.3334 25.7499V18.0999L8.66671 14.2666V21.9166ZM27.3834 9.64992C28.2167 10.1833 28.6667 10.8999 28.6667 11.8499V22.3833C28.6667 23.3333 28.2167 24.0499 27.3834 24.5833L18.25 29.8833C17.4167 30.4166 16.5834 30.4166 15.75 29.8833L6.61671 24.5833C5.78337 24.0499 5.33337 23.3333 5.33337 22.3833V11.8499C5.33337 10.8999 5.78337 10.1833 6.61671 9.64992L15.75 4.34992C16.1667 4.13325 16.5834 4.03325 17 4.03325C17.4167 4.03325 17.8334 4.13325 18.25 4.34992L27.3834 9.64992Z" fill="#00B2E8"/>
</svg>
