<svg width="27" height="27" viewBox="0 0 27 27" fill="none" xmlns="http://www.w3.org/2000/svg">
<path d="M25.1667 18.6042C23.4167 18.6042 21.5208 18.3125 19.9167 17.7292C19.7708 17.7292 19.625 17.7292 19.4792 17.7292C19.0417 17.7292 18.75 17.875 18.4583 18.1667L15.25 21.375C11.1667 19.1875 7.66667 15.8333 5.625 11.75L8.83333 8.54167C9.27083 8.10417 9.41667 7.52083 9.125 7.08333C8.6875 5.47917 8.39583 3.58333 8.39583 1.83333C8.39583 1.10417 7.66667 0.375 6.9375 0.375H1.83333C1.10417 0.375 0.375 1.10417 0.375 1.83333C0.375 15.5417 11.4583 26.625 25.1667 26.625C25.8958 26.625 26.625 25.8958 26.625 25.1667V20.0625C26.625 19.3333 25.8958 18.6042 25.1667 18.6042ZM3.29167 3.29167H5.47917C5.625 4.60417 5.91667 5.91667 6.20833 7.08333L4.45833 8.83333C3.875 7.08333 3.4375 5.1875 3.29167 3.29167ZM23.7083 23.7083C21.8125 23.5625 19.9167 23.125 18.1667 22.5417L19.9167 20.7917C21.0833 21.0833 22.3958 21.375 23.7083 21.375V23.7083Z" fill="#00B2E8"/>
</svg>
