<svg width="31" height="31" viewBox="0 0 31 31" fill="none" xmlns="http://www.w3.org/2000/svg">
<path d="M9.37484 0.916672H21.6248C26.2915 0.916672 30.0832 4.70834 30.0832 9.375V21.625C30.0832 23.8683 29.192 26.0197 27.6058 27.6059C26.0195 29.1922 23.8681 30.0833 21.6248 30.0833H9.37484C4.70817 30.0833 0.916504 26.2917 0.916504 21.625V9.375C0.916504 7.13172 1.80765 4.98031 3.39389 3.39406C4.98014 1.80782 7.13155 0.916672 9.37484 0.916672V0.916672ZM9.08317 3.83334C7.69078 3.83334 6.35543 4.38646 5.37086 5.37103C4.38629 6.35559 3.83317 7.69095 3.83317 9.08334V21.9167C3.83317 24.8188 6.18109 27.1667 9.08317 27.1667H21.9165C23.3089 27.1667 24.6442 26.6135 25.6288 25.629C26.6134 24.6444 27.1665 23.3091 27.1665 21.9167V9.08334C27.1665 6.18125 24.8186 3.83334 21.9165 3.83334H9.08317ZM23.1561 6.02084C23.6396 6.02084 24.1032 6.21289 24.4451 6.55476C24.7869 6.89662 24.979 7.36029 24.979 7.84375C24.979 8.32722 24.7869 8.79089 24.4451 9.13275C24.1032 9.47461 23.6396 9.66667 23.1561 9.66667C22.6726 9.66667 22.209 9.47461 21.8671 9.13275C21.5252 8.79089 21.3332 8.32722 21.3332 7.84375C21.3332 7.36029 21.5252 6.89662 21.8671 6.55476C22.209 6.21289 22.6726 6.02084 23.1561 6.02084ZM15.4998 8.20834C17.4337 8.20834 19.2884 8.97656 20.6558 10.344C22.0233 11.7115 22.7915 13.5661 22.7915 15.5C22.7915 17.4339 22.0233 19.2885 20.6558 20.656C19.2884 22.0234 17.4337 22.7917 15.4998 22.7917C13.566 22.7917 11.7113 22.0234 10.3438 20.656C8.9764 19.2885 8.20817 17.4339 8.20817 15.5C8.20817 13.5661 8.9764 11.7115 10.3438 10.344C11.7113 8.97656 13.566 8.20834 15.4998 8.20834V8.20834ZM15.4998 11.125C14.3395 11.125 13.2267 11.5859 12.4062 12.4064C11.5858 13.2269 11.1248 14.3397 11.1248 15.5C11.1248 16.6603 11.5858 17.7731 12.4062 18.5936C13.2267 19.4141 14.3395 19.875 15.4998 19.875C16.6602 19.875 17.773 19.4141 18.5934 18.5936C19.4139 17.7731 19.8748 16.6603 19.8748 15.5C19.8748 14.3397 19.4139 13.2269 18.5934 12.4064C17.773 11.5859 16.6602 11.125 15.4998 11.125Z" fill="#00B2E8"/>
</svg>
