<svg width="31" height="31" viewBox="0 0 31 31" fill="none" xmlns="http://www.w3.org/2000/svg">
<path d="M15.5585 0.916656C7.596 0.916656 1.10641 7.40624 1.10641 15.3687C1.10641 17.9208 1.77725 20.4 3.03141 22.5875L0.989746 30.0833L8.646 28.0708C10.7606 29.2229 13.1377 29.8354 15.5585 29.8354C23.521 29.8354 30.0106 23.3458 30.0106 15.3833C30.0106 11.5187 28.5085 7.88749 25.7814 5.16041C23.0543 2.41874 19.4231 0.916656 15.5585 0.916656ZM15.5731 3.35207C18.7814 3.35207 21.7856 4.60624 24.0606 6.88124C26.321 9.15624 27.5752 12.175 27.5752 15.3833C27.5752 22.0042 22.1793 27.3854 15.5585 27.3854C13.4002 27.3854 11.2856 26.8167 9.44808 25.7083L9.01058 25.4604L4.46058 26.6562L5.671 22.2229L5.37933 21.7562C4.1835 19.875 3.54183 17.6437 3.54183 15.3687C3.55641 8.74791 8.93766 3.35207 15.5731 3.35207ZM10.4397 8.68957C10.2064 8.68957 9.81266 8.77707 9.47725 9.14166C9.15641 9.50624 8.2085 10.3958 8.2085 12.1604C8.2085 13.9396 9.50641 15.6458 9.66683 15.8937C9.871 16.1417 12.2335 19.7875 15.8647 21.3333C16.7252 21.7271 17.396 21.9458 17.921 22.1062C18.7814 22.3833 19.5689 22.3396 20.196 22.2521C20.896 22.15 22.3252 21.3771 22.6314 20.5312C22.9377 19.6854 22.9377 18.9708 22.8502 18.8104C22.7481 18.6646 22.5147 18.5771 22.1502 18.4167C21.7856 18.2125 20.0064 17.3375 19.6856 17.2208C19.3502 17.1042 19.146 17.0458 18.8689 17.3958C18.6356 17.7604 17.9356 18.5771 17.7314 18.8104C17.5127 19.0583 17.3085 19.0875 16.9585 18.9125C16.5793 18.7229 15.4127 18.3437 14.0418 17.1187C12.9627 16.1562 12.2481 14.975 12.0293 14.6104C11.8543 14.2604 12.0147 14.0417 12.1897 13.8812C12.3502 13.7208 12.5835 13.4583 12.7293 13.2396C12.9189 13.0354 12.9772 12.875 13.0939 12.6417C13.2106 12.3937 13.1522 12.1896 13.0647 12.0146C12.9772 11.8542 12.2481 10.0458 11.9418 9.33124C11.6502 8.63124 11.3585 8.71874 11.1252 8.70416C10.921 8.70416 10.6877 8.68957 10.4397 8.68957Z" fill="#00B2E8"/>
</svg>
