<svg width="29" height="29" viewBox="0 0 29 29" fill="none" xmlns="http://www.w3.org/2000/svg">
<path fill-rule="evenodd" clip-rule="evenodd" d="M29 14.5C29 22.5081 22.5081 29 14.5 29C6.49187 29 0 22.5081 0 14.5C0 6.49187 6.49187 0 14.5 0C22.5081 0 29 6.49187 29 14.5ZM15.2358 10.2828C13.6531 10.9142 10.4898 12.2211 5.7461 14.2034C4.97579 14.4972 4.57227 14.7846 4.53553 15.0657C4.47345 15.5407 5.0936 15.7277 5.93809 15.9824C6.05296 16.017 6.17198 16.0529 6.294 16.091C7.12484 16.35 8.24247 16.6531 8.82348 16.6651C9.35051 16.676 9.93874 16.4676 10.5882 16.0399C14.8176 13.3031 17.0041 11.919 17.1478 11.8877C17.2491 11.8657 17.4069 11.8494 17.5389 11.9801C17.6615 12.1016 17.6541 12.1426 17.6113 12.3798C17.608 12.398 17.6045 12.4175 17.6008 12.4383C17.5533 12.7062 14.966 15.1097 13.8379 16.1576C13.5662 16.41 13.3792 16.5838 13.3327 16.6301C13.2413 16.7212 13.1524 16.8066 13.0681 16.8877C12.3076 17.6192 11.9157 17.9961 13.362 18.9102C14.0171 19.3243 14.4695 19.6171 14.9147 19.9051C15.4142 20.2283 15.9046 20.5456 16.6618 21.0217C16.8523 21.1415 17.0342 21.2659 17.2114 21.387C17.8856 21.848 18.4913 22.2622 19.2396 22.1961C19.6744 22.1578 20.1236 21.7656 20.3517 20.596C20.8908 17.8319 21.8213 12.1355 22.0662 9.66761C22.0876 9.45139 22.0898 9.07355 22.0682 8.95208C22.0465 8.83061 21.9696 8.69121 21.7135 8.47607C21.4574 8.26093 21.129 8.20596 20.9944 8.20816C20.4098 8.2181 19.8111 8.45704 15.8201 10.0496C15.633 10.1243 15.4383 10.202 15.2358 10.2828Z" fill="url(#paint0_linear_264_869)"/>
<defs>
<linearGradient id="paint0_linear_264_869" x1="14.5" y1="0" x2="14.5" y2="29" gradientUnits="userSpaceOnUse">
<stop stop-color="#00B2E8"/>
<stop offset="1" stop-color="#00B2E8"/>
</linearGradient>
</defs>
</svg>
