<svg width="29" height="24" viewBox="0 0 29 24" fill="none" xmlns="http://www.w3.org/2000/svg">
<path fill-rule="evenodd" clip-rule="evenodd" d="M2.0072 9.90553C9.84492 6.63029 15.0713 4.47106 17.6863 3.42782C25.1528 0.449167 26.1896 0.0173007 27.2008 0.000104406C27.4232 -0.00354272 27.9657 0.0872821 28.3888 0.442741C28.812 0.7982 28.939 1.02852 28.9749 1.22922C29.0107 1.42992 29.007 2.05419 28.9716 2.41144C28.567 6.48898 27.0295 15.9007 26.1388 20.4676C25.762 22.4 25.0199 23.0479 24.3015 23.1114C22.7402 23.2492 21.5546 22.1217 20.0424 21.1709C17.6761 19.6832 16.8872 19.134 14.5903 17.6823C11.9358 16.0045 13.0291 15.4221 14.5419 13.9151C14.9378 13.5207 21.4964 7.53839 21.5937 6.98918C21.6787 6.51026 21.7097 6.44832 21.4915 6.23224C21.2734 6.01617 21.0127 6.04313 20.8453 6.07958C20.6079 6.13124 16.9953 8.418 10.0074 12.9399C8.93437 13.6465 7.96249 13.9909 7.09172 13.9728C6.13176 13.9529 4.28519 13.4522 2.91245 13.0242C1.22873 12.4993 -0.109452 12.2218 0.00707345 11.3302C0.0677673 10.8659 0.734476 10.391 2.0072 9.90553Z" fill="#00B2E8"/>
</svg>
