<svg width="31" height="31" viewBox="0 0 31 31" fill="none" xmlns="http://www.w3.org/2000/svg">
<path d="M3.83342 0.916656C3.05987 0.916656 2.318 1.22395 1.77102 1.77093C1.22404 2.31791 0.916748 3.05978 0.916748 3.83332V18.4167H3.83342V3.83332H18.4167V0.916656H3.83342ZM9.66675 6.74999C8.8932 6.74999 8.15134 7.05728 7.60435 7.60426C7.05737 8.15124 6.75008 8.89311 6.75008 9.66666V24.25H9.66675V9.66666H24.2501V6.74999H9.66675ZM27.1668 15.5V27.1667H15.5001V15.5H27.1668ZM27.1668 12.5833H15.5001C14.7265 12.5833 13.9847 12.8906 13.4377 13.4376C12.8907 13.9846 12.5834 14.7264 12.5834 15.5V27.1667C12.5834 27.9402 12.8907 28.6821 13.4377 29.2291C13.9847 29.776 14.7265 30.0833 15.5001 30.0833H27.1668C27.9403 30.0833 28.6822 29.776 29.2291 29.2291C29.7761 28.6821 30.0834 27.9402 30.0834 27.1667V15.5C30.0834 14.7264 29.7761 13.9846 29.2291 13.4376C28.6822 12.8906 27.9403 12.5833 27.1668 12.5833Z" fill="#00B2E8"/>
</svg>
