<svg width="25" height="27" viewBox="0 0 25 27" fill="none" xmlns="http://www.w3.org/2000/svg">
<path d="M12.4999 0.375C11.3396 0.375 10.2268 0.835936 9.40632 1.65641C8.58585 2.47688 8.12492 3.58968 8.12492 4.75C8.12492 9.125 15.4166 14.9583 3.74992 14.9583C2.97637 14.9583 2.2345 15.2656 1.68752 15.8126C1.14054 16.3596 0.833252 17.1015 0.833252 17.875V20.7917H24.1666V17.875C24.1666 17.1015 23.8593 16.3596 23.3123 15.8126C22.7653 15.2656 22.0235 14.9583 21.2499 14.9583C9.58325 14.9583 16.8749 9.125 16.8749 4.75C16.8749 1.83333 14.9207 0.375 12.4999 0.375ZM3.74992 23.7083V26.625H21.2499V23.7083H3.74992Z" fill="#00B2E8"/>
</svg>
