<svg width="33" height="33" viewBox="0 0 33 33" fill="none" xmlns="http://www.w3.org/2000/svg">
<path d="M16.4999 32.5417C16.1131 32.5417 15.7422 32.388 15.4687 32.1145C15.1952 31.841 15.0416 31.4701 15.0416 31.0833V26.7083H9.20825C8.4347 26.7083 7.69284 26.4011 7.14586 25.8541C6.59888 25.3071 6.29158 24.5652 6.29158 23.7917V9.20834C6.29158 8.43479 6.59888 7.69293 7.14586 7.14595C7.69284 6.59897 8.4347 6.29168 9.20825 6.29168H29.6249C30.3985 6.29168 31.1403 6.59897 31.6873 7.14595C32.2343 7.69293 32.5416 8.43479 32.5416 9.20834V23.7917C32.5416 24.5652 32.2343 25.3071 31.6873 25.8541C31.1403 26.4011 30.3985 26.7083 29.6249 26.7083H23.6458L18.2499 32.1188C17.9583 32.3813 17.6083 32.5417 17.2291 32.5417H16.4999ZM17.9583 23.7917V28.2833L22.4499 23.7917H29.6249V9.20834H9.20825V23.7917H17.9583ZM3.37492 20.875H0.458252V3.37501C0.458252 2.60146 0.765543 1.8596 1.31252 1.31262C1.8595 0.765634 2.60137 0.458344 3.37492 0.458344H26.7083V3.37501H3.37492V20.875ZM12.1249 12.125H26.7083V15.0417H12.1249V12.125ZM12.1249 17.9583H23.7916V20.875H12.1249V17.9583Z" fill="#00B2E8"/>
</svg>
