<svg width="29" height="29" viewBox="0 0 29 29" fill="none" xmlns="http://www.w3.org/2000/svg">
<path d="M15.9582 13.0417H23.2499L21.0624 10.8542L23.1332 8.78333L28.8499 14.5L23.1332 20.2167L21.0624 18.1458L23.2499 15.9583H15.9582V23.25L18.1457 21.0625L20.2166 23.1333L14.4999 28.85L8.78323 23.1333L10.8541 21.0625L13.0416 23.25V15.9583H5.7499L7.9374 18.1458L5.86657 20.2167L0.149902 14.5L5.86657 8.78333L7.9374 10.8542L5.7499 13.0417H13.0416V5.74999L10.8541 7.93749L8.78323 5.86666L14.4999 0.149994L20.2166 5.86666L18.1457 7.93749L15.9582 5.74999V13.0417Z" fill="#00B2E8"/>
</svg>
