<svg width="29" height="31" viewBox="0 0 29 31" fill="none" xmlns="http://www.w3.org/2000/svg">
<path d="M18.6042 13.5C22.25 13.5 25.1667 16.4167 25.1667 20.0625C25.1667 21.3458 24.8021 22.5562 24.1604 23.5625L28.6521 28.0833L26.625 30.1104L22.075 25.6333C21.0687 26.2604 19.8729 26.625 18.6042 26.625C14.9583 26.625 12.0417 23.7083 12.0417 20.0625C12.0417 16.4167 14.9583 13.5 18.6042 13.5ZM18.6042 16.4167C17.6372 16.4167 16.7099 16.8008 16.0262 17.4845C15.3424 18.1682 14.9583 19.0956 14.9583 20.0625C14.9583 21.0294 15.3424 21.9568 16.0262 22.6405C16.7099 23.3242 17.6372 23.7083 18.6042 23.7083C19.5711 23.7083 20.4984 23.3242 21.1822 22.6405C21.8659 21.9568 22.25 21.0294 22.25 20.0625C22.25 19.0956 21.8659 18.1682 21.1822 17.4845C20.4984 16.8008 19.5711 16.4167 18.6042 16.4167ZM3.29167 0.375H23.7083C25.3271 0.375 26.625 1.67292 26.625 3.29167V15.0021C25.8958 13.8354 24.8896 12.8292 23.7083 12.0417V3.29167H3.29167V23.7083H9.85417C10.3063 24.8021 10.9625 25.7792 11.7646 26.625H3.29167C1.67292 26.625 0.375 25.3271 0.375 23.7083V3.29167C0.375 1.67292 1.67292 0.375 3.29167 0.375ZM6.20833 6.20833H20.7917V9.125H6.20833V6.20833ZM6.20833 12.0417H13.5437C12.3771 12.7708 11.3708 13.7771 10.5833 14.9583H6.20833V12.0417ZM6.20833 17.875H9.37292C9.2125 18.6042 9.125 19.3333 9.125 20.0625V20.7917H6.20833V17.875Z" fill="#00B2E8"/>
</svg>
