<svg width="35" height="21" viewBox="0 0 35 21" fill="none" xmlns="http://www.w3.org/2000/svg">
<path d="M17.5 0.291656C16.1463 0.291656 14.848 0.829416 13.8908 1.78663C12.9336 2.74385 12.3958 4.04211 12.3958 5.39582C12.3958 6.74953 12.9336 8.0478 13.8908 9.00502C14.848 9.96223 16.1463 10.5 17.5 10.5C18.8537 10.5 20.152 9.96223 21.1092 9.00502C22.0664 8.0478 22.6042 6.74953 22.6042 5.39582C22.6042 4.04211 22.0664 2.74385 21.1092 1.78663C20.152 0.829416 18.8537 0.291656 17.5 0.291656ZM17.5 3.20832C18.0802 3.20832 18.6366 3.43879 19.0468 3.84903C19.457 4.25926 19.6875 4.81566 19.6875 5.39582C19.6875 5.97599 19.457 6.53238 19.0468 6.94262C18.6366 7.35286 18.0802 7.58332 17.5 7.58332C16.9198 7.58332 16.3634 7.35286 15.9532 6.94262C15.543 6.53238 15.3125 5.97599 15.3125 5.39582C15.3125 4.81566 15.543 4.25926 15.9532 3.84903C16.3634 3.43879 16.9198 3.20832 17.5 3.20832ZM8.02083 4.66666C7.0539 4.66666 6.12657 5.05077 5.44284 5.7345C4.75911 6.41822 4.375 7.34556 4.375 8.31249C4.375 9.68332 5.14792 10.8646 6.25625 11.4917C6.78125 11.7833 7.37917 11.9583 8.02083 11.9583C8.6625 11.9583 9.26042 11.7833 9.78542 11.4917C10.325 11.1854 10.7771 10.7479 11.1125 10.2229C10.0479 8.83749 9.47917 7.14582 9.47917 5.39582C9.47917 5.26457 9.47917 5.11874 9.47917 4.98749C9.04167 4.78332 8.54583 4.66666 8.02083 4.66666ZM26.9792 4.66666C26.4542 4.66666 25.9583 4.78332 25.5208 4.98749C25.5208 5.11874 25.5208 5.26457 25.5208 5.39582C25.5208 7.14582 24.9521 8.83749 23.8875 10.2229C24.0625 10.5 24.2521 10.7187 24.4708 10.9375C24.7042 11.1562 24.9375 11.3458 25.2146 11.4917C25.7396 11.7833 26.3375 11.9583 26.9792 11.9583C27.6208 11.9583 28.2188 11.7833 28.7437 11.4917C29.8521 10.8646 30.625 9.68332 30.625 8.31249C30.625 7.34556 30.2409 6.41822 29.5572 5.7345C28.8734 5.05077 27.9461 4.66666 26.9792 4.66666ZM17.5 13.4167C14.0875 13.4167 7.29167 15.1229 7.29167 18.5208V20.7083H27.7083V18.5208C27.7083 15.1229 20.9125 13.4167 17.5 13.4167ZM6.86875 14.2187C4.05417 14.5542 0 15.9833 0 18.5208V20.7083H4.375V17.8937C4.375 16.4208 5.38125 15.1958 6.86875 14.2187ZM28.1313 14.2187C29.6188 15.1958 30.625 16.4208 30.625 17.8937V20.7083H35V18.5208C35 15.9833 30.9458 14.5542 28.1313 14.2187ZM17.5 16.3333C19.7313 16.3333 22.225 17.0625 23.6688 17.7917H11.3313C12.775 17.0625 15.2688 16.3333 17.5 16.3333Z" fill="#00B2E8"/>
</svg>
