<svg width="27" height="27" viewBox="0 0 27 27" fill="none" xmlns="http://www.w3.org/2000/svg">
<path d="M12.0417 20.7917C12.0417 21.1784 12.1953 21.5494 12.4688 21.8229C12.7423 22.0964 13.1132 22.25 13.5 22.25C13.8868 22.25 14.2577 22.0964 14.5312 21.8229C14.8047 21.5494 14.9583 21.1784 14.9583 20.7917C14.9583 20.4049 14.8047 20.034 14.5312 19.7605C14.2577 19.487 13.8868 19.3333 13.5 19.3333C13.1132 19.3333 12.7423 19.487 12.4688 19.7605C12.1953 20.034 12.0417 20.4049 12.0417 20.7917ZM12.0417 0.375V6.20833H14.9583V3.40833C19.9021 4.12292 23.7083 8.35208 23.7083 13.5C23.7083 16.2074 22.6328 18.8039 20.7184 20.7184C18.8039 22.6328 16.2074 23.7083 13.5 23.7083C10.7926 23.7083 8.19605 22.6328 6.28162 20.7184C4.36718 18.8039 3.29167 16.2074 3.29167 13.5C3.29167 11.05 4.15208 8.80417 5.59583 7.05417L13.5 14.9583L15.5563 12.9021L5.63958 2.98542V3.01458C2.44583 5.40625 0.375 9.19792 0.375 13.5C0.375 16.981 1.75781 20.3194 4.21922 22.7808C6.68064 25.2422 10.019 26.625 13.5 26.625C16.981 26.625 20.3194 25.2422 22.7808 22.7808C25.2422 20.3194 26.625 16.981 26.625 13.5C26.625 10.019 25.2422 6.68064 22.7808 4.21922C20.3194 1.75781 16.981 0.375 13.5 0.375H12.0417ZM22.25 13.5C22.25 13.1132 22.0964 12.7423 21.8229 12.4688C21.5494 12.1953 21.1784 12.0417 20.7917 12.0417C20.4049 12.0417 20.034 12.1953 19.7605 12.4688C19.487 12.7423 19.3333 13.1132 19.3333 13.5C19.3333 13.8868 19.487 14.2577 19.7605 14.5312C20.034 14.8047 20.4049 14.9583 20.7917 14.9583C21.1784 14.9583 21.5494 14.8047 21.8229 14.5312C22.0964 14.2577 22.25 13.8868 22.25 13.5ZM4.75 13.5C4.75 13.8868 4.90365 14.2577 5.17714 14.5312C5.45063 14.8047 5.82156 14.9583 6.20833 14.9583C6.59511 14.9583 6.96604 14.8047 7.23953 14.5312C7.51302 14.2577 7.66667 13.8868 7.66667 13.5C7.66667 13.1132 7.51302 12.7423 7.23953 12.4688C6.96604 12.1953 6.59511 12.0417 6.20833 12.0417C5.82156 12.0417 5.45063 12.1953 5.17714 12.4688C4.90365 12.7423 4.75 13.1132 4.75 13.5Z" fill="#00B2E8"/>
</svg>
