<svg width="29" height="32" viewBox="0 0 29 32" fill="none" xmlns="http://www.w3.org/2000/svg">
<path d="M22.7082 31.9792L21.8332 31.25C18.9166 28.4792 16.8749 26.7292 16.8749 24.5417C16.8749 22.7917 18.3333 21.3333 20.0833 21.3333C21.1041 21.3333 22.1249 21.7708 22.7082 22.5C23.2916 21.7708 24.3124 21.3333 25.3332 21.3333C27.0832 21.3333 28.5416 22.6458 28.5416 24.5417C28.5416 26.7292 26.4999 28.4792 23.5833 31.25L22.7082 31.9792ZM21.2499 0.916656C22.8541 0.916656 24.1666 2.22916 24.1666 3.83332V17.075L22.7082 16.9583L21.2499 17.075V3.83332H13.9583V15.5L10.3124 12.2187L6.66658 15.5V3.83332H3.74992V27.1667H14.0749C14.2499 28.2167 14.6145 29.1937 15.1249 30.0833H3.74992C2.14575 30.0833 0.833252 28.7708 0.833252 27.1667V3.83332C0.833252 2.22916 2.14575 0.916656 3.74992 0.916656H21.2499Z" fill="#00B2E8"/>
</svg>
