<svg width="31" height="31" viewBox="0 0 31 31" fill="none" xmlns="http://www.w3.org/2000/svg">
<path d="M14.0417 18.4167H11.1251C11.1251 11.1687 17.0022 5.29166 24.2501 5.29166V8.20832C18.6063 8.20832 14.0417 12.7729 14.0417 18.4167ZM24.2501 14.0417V11.125C20.2251 11.125 16.9584 14.3917 16.9584 18.4167H19.8751C19.8751 15.9958 21.8293 14.0417 24.2501 14.0417ZM8.20842 3.83332C8.20842 2.21457 6.9105 0.916656 5.29175 0.916656C3.673 0.916656 2.37508 2.21457 2.37508 3.83332C2.37508 5.45207 3.673 6.74999 5.29175 6.74999C6.9105 6.74999 8.20842 5.45207 8.20842 3.83332ZM14.698 4.56249H11.7813C11.4313 6.63332 9.66675 8.20832 7.47925 8.20832H3.10425C1.89383 8.20832 0.916748 9.18541 0.916748 10.3958V14.0417H9.66675V10.7458C12.3792 9.88541 14.4063 7.47916 14.698 4.56249ZM25.7084 22.7917C27.3272 22.7917 28.6251 21.4937 28.6251 19.875C28.6251 18.2562 27.3272 16.9583 25.7084 16.9583C24.0897 16.9583 22.7917 18.2562 22.7917 19.875C22.7917 21.4937 24.0897 22.7917 25.7084 22.7917ZM27.8959 24.25H23.5209C21.3334 24.25 19.5688 22.675 19.2188 20.6042H16.3022C16.5938 23.5208 18.6209 25.9271 21.3334 26.7875V30.0833H30.0834V26.4375C30.0834 25.2271 29.1063 24.25 27.8959 24.25Z" fill="#00B2E8"/>
</svg>
