<svg width="35" height="40" viewBox="0 0 35 40" fill="none" xmlns="http://www.w3.org/2000/svg">
<g clip-path="url(#clip0_734_14)">
<path d="M2.0744 11.8873C2.0744 11.7232 2.0197 11.5098 2.0197 11.2473C2.0197 10.8698 1.91576 10.4431 1.91576 10.0711C1.91576 9.64442 1.86105 9.26696 1.86105 8.89496C1.80635 8.46827 1.80635 8.09628 1.80635 7.71882L7.78556 2.7024L1.00766 5.64004C0.416852 4.62254 -0.168488 3.34245 -0.381836 2.33041L0.739608 1.69037C1.1663 2.7024 1.5383 3.39715 1.75164 3.6652C10.0832 0.191463 15.0449 0.0328191 16.8611 0.0875237C29.0875 0.355576 35.6028 10.9792 35.4934 20.9081C35.3348 28.9716 31.3851 32.9759 30.105 34.0974C31.8665 31.4278 33.5733 27.4726 33.36 21.2309C32.8786 10.0164 26.5274 2.00766 16.9705 1.63566C11.7899 1.42232 5.96937 5.10393 3.56784 8.25492C3.25055 8.89496 3.25055 9.32166 3.25055 10.0164C3.29978 10.3884 3.29978 10.7112 3.29978 11.0831C3.29978 11.3512 3.29978 11.5645 3.40919 11.8326L2.0744 11.8873ZM11.7352 24.6991L10.5098 24.4858C10.5646 24.2724 10.5646 24.0044 10.6138 23.7363C10.7743 23.3096 10.8818 22.8829 10.9365 22.4562C11.046 21.9748 11.0952 21.4989 11.2046 21.0667C11.2046 20.8042 11.2593 20.5908 11.3085 20.3775C13.2341 19.4694 16.8611 18.8293 19.2626 18.5613C13.6061 18.4519 12.2713 18.3972 11.3085 18.3479C11.3085 17.8665 11.2593 17.4945 11.2593 17.1171C11.2593 16.7451 11.2593 16.3731 11.2046 15.9956C11.2046 15.5689 11.1499 14.8742 11.0952 14.5022L12.326 14.3435C12.326 14.6116 12.5941 15.4103 12.8074 16.9037C12.9661 16.9037 13.1794 16.9037 13.3381 16.9037C13.7648 16.9584 14.3009 16.9584 14.7276 17.0131C15.1543 17.0678 15.6357 17.0678 16.0624 17.0678C16.3797 17.1171 16.6477 17.1171 16.8611 17.1171L29.2462 17.2812C28.2888 12.3687 25.7232 6.81619 19.2626 3.34245C28.4475 4.78665 33.1466 16.4223 31.5985 26.0339C30.3676 33.3479 25.7232 40.2899 15.1543 40.3446C11.8993 40.3446 5.06127 39.7538 -0.272427 33.988L1.00766 33.0799C2.0197 34.3654 4.20788 36.6028 7.84027 37.9376C4.47593 35.2681 3.19584 33.1346 2.61051 31.9584L3.78118 31.2144C5.01204 33.7199 8.32167 38.5284 15.0996 38.9551C25.2418 39.5405 31.6532 29.6663 29.3556 19.0919L23.4803 19.1466C20.1707 19.1466 15.0449 20.2681 12.6433 21.6028C12.326 22.6696 12.1127 23.5777 11.7352 24.6991Z" fill="#00B2E8"/>
</g>
<defs>
<clipPath id="clip0_734_14">
<rect width="35" height="40" fill="white"/>
</clipPath>
</defs>
</svg>
