<svg width="61" height="41" viewBox="0 0 61 41" fill="none" xmlns="http://www.w3.org/2000/svg">
<path d="M26.477 38.2276C26.6411 38.1182 26.9092 38.0142 27.1718 37.9048C27.2265 37.9048 27.2812 37.8556 27.3851 37.8009C27.3851 37.2648 27.3851 36.7834 27.4398 36.2527C27.5492 34.4913 27.4398 32.6751 27.4398 30.8589C27.4398 29.0427 27.4398 27.1225 27.4398 25.3063C27.4398 24.1849 27.4398 23.1182 27.4398 21.9967L25.5744 20.1805L19.3764 28.7801C12.0131 38.977 8.59409 39.6171 7.314 39.6663C9.23413 38.6543 10.465 37.4289 13.1346 34.0646C14.0427 32.9431 14.8414 31.8764 15.6947 30.7002C16.0667 30.2735 16.4442 29.7921 16.7615 29.3107C16.9748 29.0427 17.2429 28.616 17.4562 28.3479C17.6149 28.1346 17.779 27.872 17.9376 27.7079L25.1422 17.2976L27.3851 19.6499C27.3851 18.3151 27.3359 16.9803 27.3359 15.7002C27.2265 13.616 27.0678 11.6411 26.9584 9.55689C26.9092 7.58206 26.7451 5.55252 26.5864 3.52298C26.5317 3.09628 26.477 2.66958 26.3731 2.29759C25.8917 2.08425 25.5197 2.02954 24.9289 1.9256C24.6663 1.81619 24.3983 1.81619 24.1302 1.76149C23.9168 1.76149 23.8074 1.71225 23.5941 1.71225V0.536105C24.8249 0.640044 25.7877 0.640044 26.0011 0.640044C27.0678 0.694748 28.1346 0.640044 28.4573 0.640044C29.0974 6.88731 29.36 19.1685 29.36 25.6838C29.36 27.5511 29.36 29.4183 29.36 31.2856C29.36 32.996 29.36 34.7046 29.36 36.4114C29.36 37.2648 29.36 38.1729 29.3107 39.081C27.5985 39.2943 26.2144 39.6171 24.6663 40.3118V39.081C25.1969 38.8129 25.7877 38.5503 26.477 38.2276ZM37.9595 13.988C38.7582 13.0799 39.5569 12.0678 40.4158 11.105C42.2265 8.75821 43.884 6.46061 45.6455 1.81619C45.3775 1.76149 45.1094 1.76149 44.8468 1.71225C44.4694 1.71225 44.1521 1.65755 43.7746 1.60284C43.4573 1.54814 43.1893 1.4442 42.7626 1.3895C42.6586 1.3895 42.5492 1.3895 42.4945 1.33479V0C45.2735 0.426696 46.9256 0.426696 47.8337 0.426696C46.4989 4.05908 45.0602 6.61926 44.4694 7.58206L50.9847 0.426696C51.9967 0.377462 53.0689 0.268053 54.1904 0V1.28556C53.4409 1.60284 52.6915 1.71225 51.9475 1.71225L50.6127 3.15099L38.4409 16.0175L46.1816 27.0186C48.4245 30.2188 54.0263 39.2943 60.3829 39.1357V40.2571C55.1477 40.6838 51.6247 37.1608 47.8884 32.3523C47.0897 31.3403 46.3403 30.2735 45.5416 29.256C45.1641 28.7254 44.7921 28.1893 44.4201 27.7079L36.2473 16.0175C36.7834 15.3228 37.3687 14.6827 37.9595 13.988ZM35.93 1.60284C35.3446 1.71225 34.6499 1.81619 33.2057 1.97484C32.8337 7.52735 32.8337 12.3851 32.8884 19.6499L35.2352 17.2976L42.3906 27.7079C42.604 27.872 42.7079 28.1346 42.9212 28.3479C43.0853 28.616 43.3479 29.0427 43.616 29.3107C43.9387 29.7921 44.3107 30.2735 44.6827 30.7002C45.4869 31.8764 46.395 32.9431 47.1937 34.0646C49.9179 37.4289 51.0941 38.6543 53.1182 39.6663C51.7341 39.6171 48.3151 38.977 41.0011 28.7801L34.7538 20.1805L32.8884 21.9967C32.8884 22.9595 32.8337 23.9716 32.8337 24.9891C32.779 26.7998 32.8337 28.7254 32.8337 30.5416C32.8337 31.9256 32.779 33.3151 32.779 34.7046C32.779 35.6674 32.8337 36.5208 32.8337 37.4781C33.1018 37.5328 34.9672 37.8009 36.2473 38.1729L36.1433 39.5077C34.2724 39.1357 32.9923 38.9223 31.1269 39.081C31.0722 37.5875 31.0722 36.1433 31.0175 34.6499C31.0175 33.3151 31.0175 32.035 31.0175 30.7002C31.0175 28.884 30.9081 27.0678 30.9081 25.2516C30.9081 23.6543 30.9081 21.9967 30.9081 20.3939C30.9081 18.9551 30.8589 17.407 30.8589 15.9628C30.8589 13.9333 30.9081 11.9092 30.9081 9.98359C31.0175 7.90481 31.0175 5.82057 31.0722 3.79103C31.1269 2.72429 31.1762 1.65755 31.3403 0.640044C34.0099 0.426696 35.2352 0.322757 35.8753 0.268053L35.93 1.60284ZM15.9628 27.7079C15.5908 28.1893 15.1641 28.7254 14.7867 29.256C14.0427 30.2735 13.2932 31.3403 12.4398 32.3523C8.75821 37.1608 5.22976 40.6838 0 40.2571V39.1357C6.3512 39.2943 11.9584 30.2188 14.1466 27.0186L21.942 16.0175L9.77024 3.15099L8.43545 1.71225C7.68599 1.71225 6.88731 1.60284 6.13785 1.28556V0C7.314 0.268053 8.38074 0.377462 9.44748 0.426696L15.8589 7.58206C15.3228 6.61926 13.8293 4.05908 12.5492 0.426696C13.4026 0.426696 15.1094 0.426696 17.9376 0V1.33479C17.8337 1.3895 17.6696 1.3895 17.5656 1.3895C17.1937 1.4442 16.8709 1.54814 16.5481 1.60284C16.1761 1.65755 15.8589 1.71225 15.4814 1.71225C15.2133 1.76149 15 1.76149 14.7867 1.81619C16.4989 6.46061 18.151 8.75821 20.0219 11.105C20.7659 12.0678 21.6247 13.0799 22.4234 13.988C23.0088 14.6827 23.5449 15.3228 24.1302 16.0175L15.9628 27.7079Z" fill="#00B2E8"/>
</svg>
