<svg width="200" height="180" viewBox="0 0 200 180" fill="none" xmlns="http://www.w3.org/2000/svg">
<path opacity="0.7" d="M100 0C45 0 0 36 0 80C0 101 10 121 28 135C28 141 24 157 0 180C0 180 35 180 65 155C76 158 88 160 100 160C155 160 200 124 200 80C200 36 155 0 100 0ZM110 120H90V100H110V120ZM128 70C125 74 121 76 117 78C114 80 113 81 112 83C110 85 110 87 110 90H90C90 85 91 82 93 79C95 77 99 74 104 71C107 70 109 68 110 66C111 64 112 61 112 59C112 56 111 54 109 52C107 50 104 49 101 49C98 49 96 50 94 51C92 52 91 54 91 57H71C72 50 75 44 80 40C85 36 92 35 101 35C110 35 118 37 123 41C128 45 131 51 131 58C132 62 131 66 128 70Z" fill="#066FA4"/>
</svg>
