<svg width="390" height="396" viewBox="0 0 390 396" fill="none" xmlns="http://www.w3.org/2000/svg">
<path opacity="0.18" d="M218.905 394.009L1.92992 187.753C-0.182123 185.745 -0.266657 182.407 1.74105 180.295L12.8554 168.603L4.57241 160.729C2.46036 158.721 2.37581 155.383 4.38353 153.271L41.6417 114.077C43.6494 111.965 46.9876 111.88 49.0996 113.888L51.5344 116.202C55.629 112.572 62.6753 107.799 71.9853 107.074C82.5287 106.252 93.0258 110.734 103.188 120.394C129.073 145 187.095 166.198 232.599 118.329C256.824 92.8451 270.338 48.158 270.472 47.7083C270.515 47.5684 270.559 47.433 270.614 47.2988C273.03 36.7972 278.185 27.1727 285.554 19.4203C308.383 -4.5952 346.495 -5.5589 370.51 17.2703C394.527 40.1009 395.492 78.2108 372.662 102.228C365.288 109.985 355.932 115.622 345.564 118.563C345.435 118.622 345.305 118.673 345.172 118.721C344.731 118.876 300.746 134.676 276.559 160.12C231.055 207.989 255.164 264.865 281.047 289.469C291.209 299.13 296.216 309.388 295.928 319.957C295.676 329.29 291.267 336.569 287.846 340.844L290.283 343.159C292.395 345.167 292.479 348.505 290.472 350.617L253.213 389.812C251.206 391.924 247.868 392.008 245.755 390.001L237.472 382.127L226.358 393.819C224.355 395.932 221.017 396.017 218.905 394.009ZM13.0224 183.741L222.35 382.728L227.889 376.901L18.5614 177.914L13.0224 183.741ZM15.6634 156.718L249.204 378.722L279.193 347.175L45.6525 125.171L15.6634 156.718ZM59.2195 123.511L280.164 333.541C282.485 330.457 285.255 325.547 285.387 319.573C285.553 312.152 281.646 304.596 273.781 297.119C257.079 281.242 245.077 257.762 241.675 234.316C238.643 213.415 240.909 182.316 268.915 152.854C293.302 127.2 334.422 111.431 340.856 109.066C341.214 108.871 341.596 108.716 341.996 108.608C350.823 106.238 358.783 101.518 365.015 94.9618C383.838 75.1612 383.042 43.7395 363.241 24.9171C343.442 6.09605 312.02 6.89182 293.199 26.6909C286.968 33.2457 282.658 41.434 280.736 50.3708C280.647 50.7895 280.508 51.19 280.323 51.5678C278.253 58.2232 264.59 99.9887 240.244 125.599C212.238 155.061 181.294 158.898 160.266 156.928C136.677 154.718 112.62 143.92 95.9179 128.043C88.0509 120.564 80.3081 117.047 72.9038 117.587C66.9462 118.023 62.1837 121.036 59.2195 123.511Z" fill="#00B2E8"/>
</svg>
