<svg width="115" height="19" viewBox="0 0 115 19" fill="none" xmlns="http://www.w3.org/2000/svg">
<path d="M1.47082 18.264C1.34282 18.264 1.19882 18.256 1.03882 18.24C0.894823 18.24 0.758823 18.224 0.630823 18.192V15.456C0.710823 15.472 0.830823 15.48 0.990823 15.48C1.43882 15.48 1.81482 15.376 2.11882 15.168C2.42282 14.944 2.67082 14.488 2.86282 13.8C3.05482 13.096 3.19082 12.088 3.27082 10.776C3.35082 9.464 3.39082 7.712 3.39082 5.52V1.2H15.1508V18H12.2708V3.696H6.17482V6C6.17482 8.608 6.07082 10.72 5.86282 12.336C5.67082 13.936 5.37482 15.176 4.97482 16.056C4.59082 16.936 4.10282 17.528 3.51082 17.832C2.93482 18.12 2.25482 18.264 1.47082 18.264ZM26.3043 18.264C25.2803 18.264 24.3043 18.104 23.3763 17.784C22.4483 17.464 21.6323 16.968 20.9283 16.296C20.2243 15.608 19.6643 14.728 19.2483 13.656C18.8323 12.568 18.6243 11.256 18.6243 9.72V9.24C18.6243 7.768 18.8323 6.512 19.2483 5.472C19.6643 4.416 20.2243 3.552 20.9283 2.88C21.6323 2.208 22.4483 1.72 23.3763 1.416C24.3043 1.096 25.2803 0.935999 26.3043 0.935999C27.3283 0.935999 28.3043 1.096 29.2323 1.416C30.1603 1.72 30.9763 2.208 31.6803 2.88C32.3843 3.552 32.9443 4.416 33.3603 5.472C33.7763 6.512 33.9843 7.768 33.9843 9.24V9.72C33.9843 11.256 33.7763 12.568 33.3603 13.656C32.9443 14.728 32.3843 15.608 31.6803 16.296C30.9763 16.968 30.1603 17.464 29.2323 17.784C28.3043 18.104 27.3283 18.264 26.3043 18.264ZM26.3043 15.72C26.8963 15.72 27.4723 15.616 28.0323 15.408C28.5923 15.2 29.0883 14.864 29.5203 14.4C29.9523 13.92 30.2963 13.296 30.5523 12.528C30.8243 11.76 30.9603 10.824 30.9603 9.72V9.24C30.9603 8.184 30.8243 7.296 30.5523 6.576C30.2963 5.84 29.9523 5.248 29.5203 4.8C29.0883 4.336 28.5923 4 28.0323 3.792C27.4723 3.584 26.8963 3.48 26.3043 3.48C25.6963 3.48 25.1123 3.584 24.5523 3.792C23.9923 4 23.4963 4.336 23.0643 4.8C22.6323 5.248 22.2883 5.84 22.0323 6.576C21.7763 7.296 21.6483 8.184 21.6483 9.24V9.72C21.6483 10.824 21.7763 11.76 22.0323 12.528C22.2883 13.296 22.6323 13.92 23.0643 14.4C23.4963 14.864 23.9923 15.2 24.5523 15.408C25.1123 15.616 25.6963 15.72 26.3043 15.72ZM37.4643 1.2H48.2643V3.696H40.3443V18H37.4643V1.2ZM57.2652 18.264C56.2412 18.264 55.2652 18.104 54.3372 17.784C53.4092 17.464 52.5932 16.968 51.8892 16.296C51.1852 15.608 50.6252 14.728 50.2092 13.656C49.7932 12.568 49.5852 11.256 49.5852 9.72V9.24C49.5852 7.768 49.7932 6.512 50.2092 5.472C50.6252 4.416 51.1852 3.552 51.8892 2.88C52.5932 2.208 53.4092 1.72 54.3372 1.416C55.2652 1.096 56.2412 0.935999 57.2652 0.935999C58.2892 0.935999 59.2652 1.096 60.1932 1.416C61.1212 1.72 61.9372 2.208 62.6412 2.88C63.3452 3.552 63.9052 4.416 64.3212 5.472C64.7372 6.512 64.9452 7.768 64.9452 9.24V9.72C64.9452 11.256 64.7372 12.568 64.3212 13.656C63.9052 14.728 63.3452 15.608 62.6412 16.296C61.9372 16.968 61.1212 17.464 60.1932 17.784C59.2652 18.104 58.2892 18.264 57.2652 18.264ZM57.2652 15.72C57.8572 15.72 58.4332 15.616 58.9932 15.408C59.5532 15.2 60.0492 14.864 60.4812 14.4C60.9132 13.92 61.2572 13.296 61.5132 12.528C61.7852 11.76 61.9212 10.824 61.9212 9.72V9.24C61.9212 8.184 61.7852 7.296 61.5132 6.576C61.2572 5.84 60.9132 5.248 60.4812 4.8C60.0492 4.336 59.5532 4 58.9932 3.792C58.4332 3.584 57.8572 3.48 57.2652 3.48C56.6572 3.48 56.0732 3.584 55.5132 3.792C54.9532 4 54.4572 4.336 54.0252 4.8C53.5932 5.248 53.2492 5.84 52.9932 6.576C52.7372 7.296 52.6092 8.184 52.6092 9.24V9.72C52.6092 10.824 52.7372 11.76 52.9932 12.528C53.2492 13.296 53.5932 13.92 54.0252 14.4C54.4572 14.864 54.9532 15.2 55.5132 15.408C56.0732 15.616 56.6572 15.72 57.2652 15.72ZM71.9164 3.696H66.2764V1.2H80.4364V3.696H74.7964V18H71.9164V3.696ZM83.0736 1.2H85.9536V13.44L94.2096 1.2H96.9936V18H94.1136V5.76L85.8576 18H83.0736V1.2ZM101.308 1.2H114.988V18H112.108V3.696H104.188V18H101.308V1.2Z" fill="white"/>
</svg>
