<svg width="100" height="54" viewBox="0 0 100 54" fill="none" xmlns="http://www.w3.org/2000/svg">
<g clip-path="url(#clip0_600_22)">
<path fill-rule="evenodd" clip-rule="evenodd" d="M0.0437324 47.8884C0.525133 46.8983 1.48246 46.3239 2.68596 46.3239C4.69909 46.3239 5.66189 47.9431 5.66189 49.2779C5.66189 51.0285 4.3271 52.2593 2.63673 52.2593C1.51529 52.2593 0.557956 51.663 0.0218506 50.6619H0.700188C1.15971 51.4004 1.94745 51.7396 2.63673 51.7396C3.86211 51.7396 4.94526 50.8589 5.07108 49.535H1.72316V49.0153H5.07108C4.93432 47.8064 3.98793 46.8436 2.68049 46.8436C1.90916 46.8436 1.15424 47.1718 0.72754 47.8884H0.0437324ZM13.0908 51.6411H13.605V53.244H13.0361V52.1608H8.24395V53.244H7.67502V51.6411H8.19472L10.3282 46.4278H10.9518L13.0908 51.6411ZM12.4671 51.6411L10.64 47.1608L8.81288 51.6411H12.4671ZM17.4617 52.1608H16.8654L17.5437 50.6619L15.3337 46.4278H15.9847L17.8501 50.0438L19.4639 46.4278H20.0601L17.4617 52.1608ZM23.4245 46.4278H24.0645L26.5153 52.1608H25.8971L25.0711 50.2352H22.4015L21.5755 52.1608H20.9573L23.4245 46.4278ZM24.8413 49.7155L23.7418 47.0897L22.6258 49.7155H24.8413ZM28.8074 46.4278H30.6181C32.303 46.4278 32.593 47.4945 32.593 48.1455C32.593 48.9989 32.0678 49.8578 30.6181 49.8578H29.3818V52.1608H28.8074V46.4278ZM29.3818 49.3381H30.6291C31.652 49.3381 32.024 48.7418 32.024 48.1455C32.024 47.5328 31.652 46.942 30.6291 46.942H29.3818V49.3381ZM38.9934 51.6411H39.5131V53.244H38.9387V52.1608H34.152V53.244H33.5776V51.6411H34.0973L36.2363 46.4278H36.8545L38.9934 51.6411ZM38.3752 51.6411L36.5481 47.1608L34.721 51.6411H38.3752ZM51.0886 46.4278V52.1608H50.5142V46.4278H51.0886ZM47.9923 52.1608H47.2811L49.5623 49.1138L47.4507 46.4278H48.1291L50.2626 49.1685L47.9923 52.1608ZM53.4737 46.4278H54.1575L52.0404 49.1193L54.3271 52.1608H53.6159L51.3457 49.174L53.4737 46.4278ZM56.57 46.4278H59.7155V46.942H57.1444V49.0153H59.6334V49.5296H57.1444V51.6411H59.7155V52.1608H56.57V46.4278ZM67.1389 52.1554H66.5098L64.5076 47.1444L62.4836 52.1554H61.8545L64.2341 46.4278H64.7757L67.1389 52.1554ZM69.4201 46.4223H72.5656V46.9366H69.989V49.0099H72.4781V49.5241H69.989V51.6357H72.5656V52.1554H69.4201V46.4223ZM76.7779 46.3184C77.965 46.3184 78.4299 47.1116 78.4299 47.8611C78.4299 48.5558 78.0087 48.9552 77.5601 49.1521C78.2275 49.3271 78.5831 49.9125 78.5831 50.5963C78.5831 51.4333 78.0033 52.2538 76.7341 52.2538C75.4321 52.2538 74.803 51.3403 74.8632 50.3994H75.4376C75.4157 51.0667 75.8041 51.7341 76.7341 51.7341C77.582 51.7341 78.0087 51.2363 78.0087 50.6127C78.0087 50 77.6313 49.4475 76.6794 49.4475H76.3348V48.9278H76.6794C77.6367 48.9278 77.8555 48.3042 77.8555 47.8556C77.8555 47.4344 77.6094 46.8381 76.7888 46.8381C76.0339 46.8381 75.6838 47.3632 75.7002 47.9158H75.1258C75.1039 47.1171 75.6072 46.3184 76.7779 46.3184ZM81.0229 46.4223H81.5973V48.9442H84.5952V46.4223H85.1696V52.1499H84.5952V49.4639H81.5973V52.1499H81.0229V46.4223ZM93.7746 49.2615C93.7746 50.9792 92.4453 52.2593 90.7385 52.2593C89.0481 52.2593 87.7024 51.0285 87.7024 49.3053C87.7024 47.5875 89.0372 46.3239 90.7385 46.3239C92.4507 46.3239 93.7746 47.5547 93.7746 49.2615ZM93.2002 49.2615C93.2002 47.8337 92.128 46.8436 90.7494 46.8436C89.3435 46.8436 88.2768 47.8829 88.2768 49.3053C88.2768 50.7495 89.3654 51.7396 90.7494 51.7396C92.1389 51.7396 93.2002 50.6948 93.2002 49.2615ZM96.3183 46.4223H97.7516C98.3479 46.4223 99.6499 46.4934 99.6499 47.9376C99.6499 48.5558 99.2615 48.895 98.9606 49.081C99.6717 49.2888 99.9562 49.9398 99.9562 50.5361C99.9562 50.9902 99.7647 52.1554 97.8884 52.1554H96.3183V46.4223ZM97.8884 51.6357C98.4245 51.6357 99.3763 51.5427 99.3763 50.5471C99.3763 49.5022 98.4573 49.3983 97.8884 49.3983H96.8927V51.6357H97.8884ZM97.7461 48.8786C98.2275 48.8786 99.07 48.7965 99.07 47.9103C99.07 46.9694 98.1674 46.942 97.7461 46.942H96.8873V48.8786H97.7461Z" fill="white"/>
<path d="M8.0744 11.8873C8.0744 11.7232 8.0197 11.5098 8.0197 11.2473C8.0197 10.8698 7.91576 10.4431 7.91576 10.0711C7.91576 9.64442 7.86105 9.26696 7.86105 8.89497C7.80635 8.46827 7.80635 8.09628 7.80635 7.71882L13.7856 2.70241L7.00766 5.64005C6.41685 4.62254 5.83151 3.34245 5.61816 2.33042L6.73961 1.69037C7.1663 2.70241 7.5383 3.39716 7.75164 3.66521C16.0832 0.191467 21.0449 0.0328236 22.8611 0.0875282C35.0875 0.355581 41.6028 10.9792 41.4934 20.9081C41.3348 28.9716 37.3851 32.9759 36.105 34.0974C37.8665 31.4278 39.5733 27.4727 39.36 21.2309C38.8786 10.0164 32.5274 2.00766 22.9705 1.63567C17.7899 1.42232 11.9694 5.10394 9.56784 8.25492C9.25055 8.89497 9.25055 9.32166 9.25055 10.0164C9.29978 10.3884 9.29978 10.7112 9.29978 11.0832C9.29978 11.3512 9.29978 11.5646 9.40919 11.8326L8.0744 11.8873ZM17.7352 24.6991L16.5098 24.4858C16.5646 24.2724 16.5646 24.0044 16.6138 23.7363C16.7743 23.3096 16.8818 22.8829 16.9365 22.4562C17.046 21.9748 17.0952 21.4989 17.2046 21.0667C17.2046 20.8042 17.2593 20.5908 17.3085 20.3775C19.2341 19.4694 22.8611 18.8293 25.2626 18.5613C19.6061 18.4519 18.2713 18.3972 17.3085 18.3479C17.3085 17.8665 17.2593 17.4945 17.2593 17.1171C17.2593 16.7451 17.2593 16.3731 17.2046 15.9956C17.2046 15.5689 17.1499 14.8742 17.0952 14.5022L18.326 14.3435C18.326 14.6116 18.5941 15.4103 18.8074 16.9037C18.9661 16.9037 19.1794 16.9037 19.3381 16.9037C19.7648 16.9584 20.3009 16.9584 20.7276 17.0131C21.1543 17.0678 21.6357 17.0678 22.0624 17.0678C22.3797 17.1171 22.6477 17.1171 22.8611 17.1171L35.2462 17.2812C34.2888 12.3687 31.7232 6.81619 25.2626 3.34245C34.4475 4.78665 39.1466 16.4223 37.5985 26.0339C36.3676 33.3479 31.7232 40.2899 21.1543 40.3446C17.8993 40.3446 11.0613 39.7538 5.72757 33.988L7.00766 33.0799C8.0197 34.3654 10.2079 36.6028 13.8403 37.9376C10.4759 35.2681 9.19584 33.1346 8.61051 31.9584L9.78118 31.2144C11.012 33.7199 14.3217 38.5284 21.0996 38.9551C31.2418 39.5405 37.6532 29.6663 35.3556 19.0919L29.4803 19.1466C26.1707 19.1466 21.0449 20.2681 18.6433 21.6028C18.326 22.6696 18.1127 23.5777 17.7352 24.6991ZM60.4705 38.2604C60.6346 38.151 60.9026 38.0471 61.1652 37.9376C61.2199 37.9376 61.2746 37.8884 61.3786 37.8337C61.3786 37.2976 61.3786 36.8162 61.4333 36.2856C61.5427 34.5241 61.4333 32.7079 61.4333 30.8917C61.4333 29.0755 61.4333 27.1554 61.4333 25.3392C61.4333 24.2177 61.4333 23.151 61.4333 22.0295L59.5678 20.2134L53.3698 28.8129C46.0066 39.0099 42.5875 39.6499 41.3074 39.6991C43.2276 38.6871 44.4584 37.4617 47.128 34.0974C48.0361 32.9759 48.8348 31.9092 49.6882 30.733C50.0602 30.3063 50.4376 29.825 50.7549 29.3435C50.9683 29.0755 51.2363 28.6488 51.4497 28.3807C51.6083 28.1674 51.7724 27.9048 51.9311 27.7407L59.1357 17.3304L61.3786 19.6827C61.3786 18.3479 61.3293 17.0131 61.3293 15.733C61.2199 13.6488 61.0613 11.674 60.9519 9.58972C60.9026 7.61488 60.7385 5.58534 60.5799 3.5558C60.5252 3.1291 60.4705 2.70241 60.3665 2.33042C59.8851 2.11707 59.5131 2.06236 58.9223 1.95843C58.6597 1.84902 58.3917 1.84902 58.1236 1.79431C57.9103 1.79431 57.8009 1.74508 57.5875 1.74508V0.568929C58.8184 0.672867 59.7812 0.672867 59.9945 0.672867C61.0613 0.727572 62.128 0.672867 62.4508 0.672867C63.0908 6.92013 63.3534 19.2013 63.3534 25.7166C63.3534 27.5839 63.3534 29.4511 63.3534 31.3184C63.3534 33.0288 63.3534 34.7374 63.3534 36.4442C63.3534 37.2976 63.3534 38.2057 63.3042 39.1138C61.5919 39.3271 60.2079 39.6499 58.6597 40.3446V39.1138C59.1904 38.8457 59.7812 38.5832 60.4705 38.2604ZM71.953 14.0208C72.7517 13.1127 73.5503 12.1007 74.4092 11.1379C76.2199 8.79103 77.8775 6.49344 79.639 1.84902C79.3709 1.79431 79.1029 1.79431 78.8403 1.74508C78.4628 1.74508 78.1455 1.69037 77.7681 1.63567C77.4508 1.58096 77.1827 1.47702 76.756 1.42232C76.6521 1.42232 76.5427 1.42232 76.488 1.36762V0.0328236C79.267 0.459519 80.9191 0.459519 81.8271 0.459519C80.4924 4.09191 79.0536 6.65208 78.4628 7.61488L84.9781 0.459519C85.9902 0.410285 87.0624 0.300876 88.1838 0.0328236V1.31838C87.4344 1.63567 86.6849 1.74508 85.9409 1.74508L84.6061 3.18381L72.4344 16.0503L80.1751 27.0514C82.418 30.2516 88.0197 39.3271 94.3764 39.1685V40.2899C89.1411 40.7166 85.6182 37.1937 81.8819 32.3851C81.0832 31.3731 80.3337 30.3064 79.535 29.2888C79.1576 28.7582 78.7856 28.2221 78.4136 27.7407L70.2407 16.0503C70.7768 15.3556 71.3622 14.7155 71.953 14.0208ZM69.9234 1.63567C69.3381 1.74508 68.6433 1.84902 67.1991 2.00766C66.8271 7.56018 66.8271 12.4179 66.8818 19.6827L69.2287 17.3304L76.384 27.7407C76.5974 27.9048 76.7013 28.1674 76.9147 28.3807C77.0788 28.6488 77.3414 29.0755 77.6094 29.3435C77.9322 29.825 78.3042 30.3063 78.6762 30.733C79.4803 31.9092 80.3884 32.9759 81.1871 34.0974C83.9114 37.4617 85.0875 38.6871 87.1116 39.6991C85.7276 39.6499 82.3085 39.0099 74.9945 28.8129L68.7473 20.2134L66.8818 22.0295C66.8818 22.9923 66.8271 24.0044 66.8271 25.0219C66.7724 26.8326 66.8271 28.7582 66.8271 30.5744C66.8271 31.9584 66.7724 33.3479 66.7724 34.7374C66.7724 35.7002 66.8271 36.5536 66.8271 37.5109C67.0952 37.5657 68.9606 37.8337 70.2407 38.2057L70.1368 39.5405C68.2659 39.1685 66.9858 38.9551 65.1204 39.1138C65.0657 37.6204 65.0657 36.1762 65.011 34.6827C65.011 33.3479 65.011 32.0678 65.011 30.733C65.011 28.9169 64.9015 27.1007 64.9015 25.2845C64.9015 23.6871 64.9015 22.0295 64.9015 20.4267C64.9015 18.988 64.8523 17.4398 64.8523 15.9956C64.8523 13.9661 64.9015 11.942 64.9015 10.0164C65.011 7.93764 65.011 5.85339 65.0657 3.82385C65.1204 2.75711 65.1696 1.69037 65.3337 0.672867C68.0033 0.459519 69.2287 0.355581 69.8687 0.300876L69.9234 1.63567ZM49.9562 27.7407C49.5843 28.2221 49.1576 28.7582 48.7801 29.2888C48.0361 30.3064 47.2867 31.3731 46.4333 32.3851C42.7516 37.1937 39.2232 40.7166 33.9934 40.2899V39.1685C40.3446 39.3271 45.9519 30.2516 48.14 27.0514L55.9355 16.0503L43.7637 3.18381L42.4289 1.74508C41.6794 1.74508 40.8807 1.63567 40.1313 1.31838V0.0328236C41.3074 0.300876 42.3742 0.410285 43.4409 0.459519L49.8523 7.61488C49.3162 6.65208 47.8228 4.09191 46.5427 0.459519C47.3961 0.459519 49.1028 0.459519 51.9311 0.0328236V1.36762C51.8271 1.42232 51.663 1.42232 51.5591 1.42232C51.1871 1.47702 50.8643 1.58096 50.5416 1.63567C50.1696 1.69037 49.8523 1.74508 49.4748 1.74508C49.2068 1.79431 48.9934 1.79431 48.7801 1.84902C50.4923 6.49344 52.1444 8.79103 54.0153 11.1379C54.7593 12.1007 55.6182 13.1127 56.4169 14.0208C57.0022 14.7155 57.5383 15.3556 58.1236 16.0503L49.9562 27.7407Z" fill="white"/>
</g>
<defs>
<clipPath id="clip0_600_22">
<rect width="100" height="53.2823" fill="white"/>
</clipPath>
</defs>
</svg>
