<svg width="66" height="35" viewBox="0 0 66 35" fill="none" xmlns="http://www.w3.org/2000/svg">
<path fill-rule="evenodd" clip-rule="evenodd" d="M0.028778 31.4569C0.345 30.8064 0.97385 30.4291 1.7644 30.4291C3.08679 30.4291 3.71923 31.4928 3.71923 32.3696C3.71923 33.5195 2.84243 34.328 1.73206 34.328C0.99541 34.328 0.36656 33.9363 0.0144043 33.2787H0.45999C0.761838 33.7638 1.27929 33.9866 1.73206 33.9866C2.53699 33.9866 3.24849 33.4081 3.33114 32.5385H1.13196V32.1971H3.33114C3.2413 31.4029 2.61964 30.7705 1.76081 30.7705C1.25414 30.7705 0.758244 30.9861 0.477957 31.4569H0.028778ZM8.59911 33.9219H8.93689V34.9748H8.56317V34.2633H5.41533V34.9748H5.04161V33.9219H5.38299L6.78443 30.4974H7.19408L8.59911 33.9219ZM8.18946 33.9219L6.98925 30.9789L5.78905 33.9219H8.18946ZM11.4703 34.2633H11.0786L11.5242 33.2787L10.0724 30.4974H10.5L11.7254 32.8727L12.7855 30.4974H13.1771L11.4703 34.2633ZM15.3871 30.4974H15.8075L17.4174 34.2633H17.0113L16.4687 32.9984H14.7151L14.1725 34.2633H13.7665L15.3871 30.4974ZM16.3178 32.6571L15.5955 30.9322L14.8625 32.6571H16.3178ZM18.923 30.4974H20.1125C21.2192 30.4974 21.4097 31.1981 21.4097 31.6257C21.4097 32.1863 21.0647 32.7505 20.1125 32.7505H19.3003V34.2633H18.923V30.4974ZM19.3003 32.4091H20.1196C20.7916 32.4091 21.036 32.0174 21.036 31.6257C21.036 31.2233 20.7916 30.8352 20.1196 30.8352H19.3003V32.4091ZM25.614 33.9219H25.9554V34.9748H25.5781V34.2633H22.4338V34.9748H22.0565V33.9219H22.3979L23.8029 30.4974H24.209L25.614 33.9219ZM25.2079 33.9219L24.0077 30.9789L22.8075 33.9219H25.2079ZM33.5591 30.4974V34.2633H33.1818V30.4974H33.5591ZM31.5252 34.2633H31.058L32.5565 32.2618L31.1694 30.4974H31.615L33.0165 32.2977L31.5252 34.2633ZM35.1258 30.4974H35.575L34.1843 32.2654L35.6864 34.2633H35.2192L33.728 32.3013L35.1258 30.4974ZM37.1597 30.4974H39.2259V30.8352H37.537V32.1971H39.172V32.5349H37.537V33.9219H39.2259V34.2633H37.1597V30.4974ZM44.1022 34.2597H43.6889L42.3737 30.9681L41.0442 34.2597H40.6309L42.1941 30.4974H42.5498L44.1022 34.2597ZM45.6006 30.4938H47.6669V30.8316H45.9744V32.1935H47.6094V32.5313H45.9744V33.9184H47.6669V34.2597H45.6006V30.4938ZM50.4338 30.4255C51.2136 30.4255 51.519 30.9466 51.519 31.4389C51.519 31.8953 51.2423 32.1576 50.9477 32.2869C51.3861 32.4019 51.6196 32.7864 51.6196 33.2356C51.6196 33.7854 51.2387 34.3244 50.4051 34.3244C49.5498 34.3244 49.1366 33.7243 49.1761 33.1062H49.5534C49.539 33.5446 49.7942 33.983 50.4051 33.983C50.962 33.983 51.2423 33.656 51.2423 33.2464C51.2423 32.8439 50.9944 32.481 50.3691 32.481H50.1427V32.1396H50.3691C50.998 32.1396 51.1417 31.73 51.1417 31.4353C51.1417 31.1586 50.98 30.7669 50.441 30.7669C49.9451 30.7669 49.7151 31.1119 49.7259 31.4748H49.3486C49.3342 30.9502 49.6648 30.4255 50.4338 30.4255ZM53.2223 30.4938H53.5996V32.1504H55.5688V30.4938H55.9461V34.2561H55.5688V32.4918H53.5996V34.2561H53.2223V30.4938ZM61.5986 32.3588C61.5986 33.4871 60.7254 34.328 59.6042 34.328C58.4939 34.328 57.6099 33.5195 57.6099 32.3875C57.6099 31.2592 58.4867 30.4291 59.6042 30.4291C60.729 30.4291 61.5986 31.2377 61.5986 32.3588ZM61.2213 32.3588C61.2213 31.4209 60.517 30.7705 59.6114 30.7705C58.6879 30.7705 57.9872 31.4533 57.9872 32.3875C57.9872 33.3362 58.7023 33.9866 59.6114 33.9866C60.5242 33.9866 61.2213 33.3003 61.2213 32.3588ZM63.2695 30.4938H64.211C64.6027 30.4938 65.4579 30.5405 65.4579 31.4892C65.4579 31.8952 65.2028 32.118 65.0052 32.2402C65.4723 32.3768 65.6592 32.8044 65.6592 33.1961C65.6592 33.4943 65.5334 34.2597 64.3008 34.2597H63.2695V30.4938ZM64.3008 33.9184C64.653 33.9184 65.2783 33.8573 65.2783 33.2033C65.2783 32.5169 64.6746 32.4486 64.3008 32.4486H63.6468V33.9184H64.3008ZM64.2074 32.1073C64.5236 32.1073 65.077 32.0534 65.077 31.4712C65.077 30.8532 64.4841 30.8352 64.2074 30.8352H63.6433V32.1073H64.2074Z" fill="white"/>
<path d="M5.30388 7.80845C5.30388 7.70064 5.26795 7.5605 5.26795 7.38801C5.26795 7.14007 5.19967 6.85978 5.19967 6.61543C5.19967 6.33514 5.16374 6.08719 5.16374 5.84284C5.1278 5.56255 5.1278 5.3182 5.1278 5.07025L9.05542 1.77508L4.60316 3.70475C4.21507 3.03637 3.83057 2.19551 3.69043 1.53072L4.42708 1.11029C4.70737 1.77508 4.95172 2.23144 5.09187 2.40752C10.5647 0.125694 13.8239 0.0214844 15.0169 0.0574187C23.0482 0.233497 27.328 7.21194 27.2561 13.734C27.1519 19.0307 24.5575 21.6611 23.7166 22.3978C24.8737 20.6442 25.9948 18.0461 25.8547 13.946C25.5385 6.57949 21.3665 1.31871 15.0888 1.07436C11.6858 0.934215 7.8624 3.35259 6.28489 5.42241C6.07647 5.84284 6.07647 6.12313 6.07647 6.57949C6.10881 6.82385 6.10881 7.03586 6.10881 7.28021C6.10881 7.45629 6.10881 7.59643 6.18068 7.77251L5.30388 7.80845ZM11.6499 16.2243L10.8449 16.0841C10.8809 15.944 10.8809 15.7679 10.9132 15.5918C11.0186 15.3115 11.0893 15.0312 11.1252 14.751C11.1971 14.4347 11.2294 14.1221 11.3013 13.8382C11.3013 13.6657 11.3372 13.5256 11.3696 13.3854C12.6345 12.7889 15.0169 12.3685 16.5944 12.1924C12.8788 12.1206 12.002 12.0846 11.3696 12.0523C11.3696 11.7361 11.3372 11.4917 11.3372 11.2438C11.3372 10.9994 11.3372 10.7551 11.3013 10.5071C11.3013 10.2268 11.2654 9.77046 11.2294 9.52611L12.038 9.4219C12.038 9.59797 12.214 10.1226 12.3542 11.1036C12.4584 11.1036 12.5985 11.1036 12.7028 11.1036C12.983 11.1396 13.3352 11.1396 13.6155 11.1755C13.8958 11.2114 14.212 11.2114 14.4923 11.2114C14.7007 11.2438 14.8768 11.2438 15.0169 11.2438L23.1524 11.3516C22.5236 8.12467 20.8383 4.47734 16.5944 2.19551C22.6278 3.14417 25.7146 10.7874 24.6976 17.1011C23.8891 21.9055 20.8383 26.4655 13.8958 26.5015C11.7577 26.5015 7.26589 26.1134 3.7623 22.3259L4.60316 21.7294C5.26795 22.5738 6.70532 24.0436 9.09135 24.9204C6.88139 23.1668 6.04053 21.7653 5.65604 20.9927L6.42503 20.504C7.23355 22.1498 9.40758 25.3084 13.8598 25.5887C20.5221 25.9732 24.7336 19.4871 23.2243 12.541L19.365 12.5769C17.1909 12.5769 13.8239 13.3136 12.2464 14.1904C12.038 14.8911 11.8978 15.4876 11.6499 16.2243ZM39.7217 25.1324C39.8295 25.0605 40.0056 24.9922 40.1781 24.9204C40.214 24.9204 40.25 24.888 40.3183 24.8521C40.3183 24.4999 40.3183 24.1837 40.3542 23.8351C40.4261 22.6781 40.3542 21.485 40.3542 20.292C40.3542 19.099 40.3542 17.8377 40.3542 16.6447C40.3542 15.908 40.3542 15.2073 40.3542 14.4707L39.1288 13.2776L35.0575 18.9265C30.2207 25.6247 27.9748 26.0451 27.134 26.0774C28.3953 25.4127 29.2038 24.6077 30.9574 22.3978C31.5539 21.6611 32.0785 20.9604 32.6391 20.1878C32.8834 19.9075 33.1314 19.5913 33.3398 19.2751C33.48 19.099 33.656 18.8187 33.7962 18.6426C33.9004 18.5025 34.0082 18.33 34.1124 18.2222L38.8449 11.3839L40.3183 12.9291C40.3183 12.0523 40.2859 11.1755 40.2859 10.3346C40.214 8.96553 40.1098 7.6683 40.038 6.29921C40.0056 5.00198 39.8978 3.66882 39.7936 2.33565C39.7577 2.05537 39.7217 1.77508 39.6535 1.53072C39.3372 1.39058 39.0929 1.35465 38.7048 1.28637C38.5323 1.2145 38.3562 1.2145 38.1802 1.17857C38.04 1.17857 37.9681 1.14623 37.828 1.14623V0.37364C38.6365 0.441916 39.269 0.441916 39.4091 0.441916C40.1098 0.47785 40.8106 0.441916 41.0226 0.441916C41.443 4.54561 41.6155 12.6129 41.6155 16.8926C41.6155 18.1192 41.6155 19.3458 41.6155 20.5723C41.6155 21.6959 41.6155 22.8182 41.6155 23.9394C41.6155 24.4999 41.6155 25.0964 41.5831 25.6929C40.4584 25.8331 39.5493 26.0451 38.5323 26.5015V25.6929C38.8809 25.5169 39.269 25.3444 39.7217 25.1324ZM47.2644 9.20988C47.789 8.61337 48.3136 7.94859 48.8778 7.31615C50.0672 5.77457 51.156 4.26532 52.3131 1.2145C52.137 1.17857 51.961 1.17857 51.7885 1.14623C51.5405 1.14623 51.3321 1.11029 51.0842 1.07436C50.8757 1.03842 50.6997 0.97015 50.4194 0.934215C50.3511 0.934215 50.2792 0.934215 50.2433 0.898281V0.0214844C52.0688 0.301772 53.154 0.301772 53.7505 0.301772C52.8737 2.68781 51.9286 4.36953 51.5405 5.00198L55.8203 0.301772C56.4851 0.269431 57.1894 0.197562 57.9261 0.0214844V0.86594C57.4338 1.07436 56.9415 1.14623 56.4528 1.14623L55.576 2.0913L47.5806 10.543L52.6653 17.7694C54.1386 19.8716 57.8183 25.8331 61.9938 25.7289V26.4655C58.5549 26.7458 56.2407 24.4317 53.7864 21.273C53.2618 20.6082 52.7695 19.9075 52.2448 19.2391C51.9969 18.8906 51.7525 18.5384 51.5082 18.2222L46.1396 10.543C46.4918 10.0867 46.8763 9.66625 47.2644 9.20988ZM45.9312 1.07436C45.5467 1.14623 45.0903 1.2145 44.1417 1.31871C43.8973 4.96604 43.8973 8.15701 43.9332 12.9291L45.4748 11.3839L50.175 18.2222C50.3152 18.33 50.3834 18.5025 50.5236 18.6426C50.6314 18.8187 50.8039 19.099 50.98 19.2751C51.192 19.5913 51.4363 19.9075 51.6807 20.1878C52.2089 20.9604 52.8054 21.6611 53.3301 22.3978C55.1196 24.6077 55.8922 25.4127 57.2217 26.0774C56.3126 26.0451 54.0667 25.6247 49.2623 18.9265L45.1586 13.2776L43.9332 14.4707C43.9332 15.1031 43.8973 15.7679 43.8973 16.4363C43.8614 17.6257 43.8973 18.8906 43.8973 20.0836C43.8973 20.9927 43.8614 21.9055 43.8614 22.8182C43.8614 23.4506 43.8973 24.0112 43.8973 24.6401C44.0734 24.676 45.2987 24.8521 46.1396 25.0964L46.0713 25.9732C44.8424 25.7289 44.0015 25.5887 42.7762 25.6929C42.7402 24.7119 42.7402 23.7633 42.7043 22.7823C42.7043 21.9055 42.7043 21.0646 42.7043 20.1878C42.7043 18.9948 42.6324 17.8018 42.6324 16.6088C42.6324 15.5595 42.6324 14.4707 42.6324 13.4178C42.6324 12.4727 42.6001 11.4558 42.6001 10.5071C42.6001 9.17395 42.6324 7.84438 42.6324 6.57949C42.7043 5.21399 42.7043 3.84489 42.7402 2.51173C42.7762 1.81101 42.8085 1.11029 42.9163 0.441916C44.6699 0.301772 45.4748 0.233497 45.8953 0.197562L45.9312 1.07436ZM32.8152 18.2222C32.5708 18.5384 32.2905 18.8906 32.0426 19.2391C31.5539 19.9075 31.0616 20.6082 30.501 21.273C28.0826 24.4317 25.7649 26.7458 22.3295 26.4655V25.7289C26.5015 25.8331 30.1848 19.8716 31.6222 17.7694L36.7428 10.543L28.7474 2.0913L27.8706 1.14623C27.3783 1.14623 26.8537 1.07436 26.3614 0.86594V0.0214844C27.134 0.197562 27.8347 0.269431 28.5354 0.301772L32.7469 5.00198C32.3947 4.36953 31.4137 2.68781 30.5729 0.301772C31.1334 0.301772 32.2546 0.301772 34.1124 0.0214844V0.898281C34.0441 0.934215 33.9363 0.934215 33.868 0.934215C33.6237 0.97015 33.4117 1.03842 33.1997 1.07436C32.9553 1.11029 32.7469 1.14623 32.499 1.14623C32.3229 1.17857 32.1827 1.17857 32.0426 1.2145C33.1673 4.26532 34.2525 5.77457 35.4815 7.31615C35.9702 7.94859 36.5344 8.61337 37.059 9.20988C37.4435 9.66625 37.7957 10.0867 38.1802 10.543L32.8152 18.2222Z" fill="white"/>
</svg>
